<mxfile host="app.diagrams.net" modified="2023-12-05T11:26:56.148Z" agent="Mozilla/5.0 (Windows NT 10.0; Win64; x64) AppleWebKit/537.36 (KHTML, like Gecko) Chrome/119.0.0.0 Safari/537.36 Edg/119.0.0.0" etag="Ykn7VnjyKJSNhkvrAkcR" version="22.1.5" type="github">
  <diagram name="第 1 页" id="v-XoQI11NsbqF0virC02">
    <mxGraphModel dx="2514" dy="1508" grid="0" gridSize="10" guides="1" tooltips="1" connect="1" arrows="1" fold="1" page="0" pageScale="1" pageWidth="827" pageHeight="1169" math="0" shadow="0">
      <root>
        <mxCell id="0" />
        <mxCell id="1" parent="0" />
        <mxCell id="mk1XKIT5PEIia6fV1DQZ-1" value="PINValidation&lt;br&gt;Transaction" style="html=1;whiteSpace=wrap;rounded=0;strokeWidth=1;" vertex="1" parent="1">
          <mxGeometry x="810" y="600" width="110" height="50" as="geometry" />
        </mxCell>
        <mxCell id="mk1XKIT5PEIia6fV1DQZ-2" value="Withdraw Transaction" style="html=1;whiteSpace=wrap;rounded=0;strokeWidth=1;" vertex="1" parent="1">
          <mxGeometry x="330" y="600" width="110" height="50" as="geometry" />
        </mxCell>
        <mxCell id="mk1XKIT5PEIia6fV1DQZ-3" value="Transfer&amp;nbsp;&lt;br&gt;Transaction" style="html=1;whiteSpace=wrap;rounded=0;strokeWidth=1;" vertex="1" parent="1">
          <mxGeometry x="640" y="600" width="110" height="50" as="geometry" />
        </mxCell>
        <mxCell id="mk1XKIT5PEIia6fV1DQZ-4" value="Query&lt;br&gt;Transaction" style="html=1;whiteSpace=wrap;rounded=0;strokeWidth=1;" vertex="1" parent="1">
          <mxGeometry x="480" y="600" width="110" height="50" as="geometry" />
        </mxCell>
        <mxCell id="mk1XKIT5PEIia6fV1DQZ-5" value="Acccount" style="html=1;whiteSpace=wrap;flipH=0;flipV=1;rounded=0;strokeWidth=1;" vertex="1" parent="1">
          <mxGeometry x="-100" y="390" width="110" height="60" as="geometry" />
        </mxCell>
        <mxCell id="mk1XKIT5PEIia6fV1DQZ-17" value="Checking Account" style="html=1;whiteSpace=wrap;rounded=0;strokeWidth=1;" vertex="1" parent="1">
          <mxGeometry x="20" y="590" width="110" height="50" as="geometry" />
        </mxCell>
        <mxCell id="mk1XKIT5PEIia6fV1DQZ-19" value="SavingAccount" style="html=1;whiteSpace=wrap;rounded=0;strokeWidth=1;" vertex="1" parent="1">
          <mxGeometry x="-220" y="590" width="110" height="50" as="geometry" />
        </mxCell>
        <mxCell id="mk1XKIT5PEIia6fV1DQZ-21" value="" style="endArrow=none;html=1;rounded=0;exitX=0.5;exitY=0;exitDx=0;exitDy=0;strokeWidth=1;" edge="1" parent="1" source="mk1XKIT5PEIia6fV1DQZ-19">
          <mxGeometry width="50" height="50" relative="1" as="geometry">
            <mxPoint x="-160" y="570" as="sourcePoint" />
            <mxPoint x="-163" y="518" as="targetPoint" />
          </mxGeometry>
        </mxCell>
        <mxCell id="mk1XKIT5PEIia6fV1DQZ-22" value="" style="endArrow=none;html=1;rounded=0;exitX=0.538;exitY=0.01;exitDx=0;exitDy=0;exitPerimeter=0;strokeWidth=1;" edge="1" parent="1" source="mk1XKIT5PEIia6fV1DQZ-17">
          <mxGeometry width="50" height="50" relative="1" as="geometry">
            <mxPoint x="89.18000000000029" y="589" as="sourcePoint" />
            <mxPoint x="77.18000000000029" y="513" as="targetPoint" />
          </mxGeometry>
        </mxCell>
        <mxCell id="mk1XKIT5PEIia6fV1DQZ-23" value="" style="endArrow=none;html=1;rounded=0;strokeWidth=1;" edge="1" parent="1">
          <mxGeometry width="50" height="50" relative="1" as="geometry">
            <mxPoint x="-163" y="518" as="sourcePoint" />
            <mxPoint x="76" y="514" as="targetPoint" />
          </mxGeometry>
        </mxCell>
        <mxCell id="mk1XKIT5PEIia6fV1DQZ-24" value="" style="endArrow=block;endSize=16;endFill=0;html=1;rounded=0;strokeWidth=1;" edge="1" parent="1">
          <mxGeometry width="160" relative="1" as="geometry">
            <mxPoint x="-47.42857142857156" y="517" as="sourcePoint" />
            <mxPoint x="-47.42857142857156" y="447" as="targetPoint" />
          </mxGeometry>
        </mxCell>
        <mxCell id="mk1XKIT5PEIia6fV1DQZ-27" value="" style="endArrow=block;endSize=16;endFill=0;html=1;rounded=0;strokeWidth=1;" edge="1" parent="1">
          <mxGeometry width="160" relative="1" as="geometry">
            <mxPoint x="621" y="557" as="sourcePoint" />
            <mxPoint x="620.9999999999995" y="442" as="targetPoint" />
          </mxGeometry>
        </mxCell>
        <mxCell id="mk1XKIT5PEIia6fV1DQZ-35" value="" style="strokeWidth=1;html=1;shape=mxgraph.flowchart.annotation_1;align=left;pointerEvents=1;direction=south;rounded=0;" vertex="1" parent="1">
          <mxGeometry x="380" y="560" width="160" height="40" as="geometry" />
        </mxCell>
        <mxCell id="mk1XKIT5PEIia6fV1DQZ-36" value="" style="strokeWidth=1;html=1;shape=mxgraph.flowchart.annotation_1;align=left;pointerEvents=1;direction=south;rounded=0;" vertex="1" parent="1">
          <mxGeometry x="540" y="560" width="160" height="40" as="geometry" />
        </mxCell>
        <mxCell id="mk1XKIT5PEIia6fV1DQZ-40" value="Transaction" style="html=1;whiteSpace=wrap;rounded=0;strokeWidth=1;" vertex="1" parent="1">
          <mxGeometry x="570" y="400" width="110" height="50" as="geometry" />
        </mxCell>
        <mxCell id="mk1XKIT5PEIia6fV1DQZ-39" value="" style="strokeWidth=1;html=1;shape=mxgraph.flowchart.annotation_1;align=left;pointerEvents=1;direction=south;rounded=0;" vertex="1" parent="1">
          <mxGeometry x="700" y="560" width="160" height="40" as="geometry" />
        </mxCell>
        <mxCell id="mk1XKIT5PEIia6fV1DQZ-41" value="Bank" style="html=1;whiteSpace=wrap;rounded=0;strokeWidth=1;" vertex="1" parent="1">
          <mxGeometry x="-650" y="-100" width="110" height="50" as="geometry" />
        </mxCell>
        <mxCell id="mk1XKIT5PEIia6fV1DQZ-42" value="DebitCard" style="html=1;whiteSpace=wrap;rounded=0;strokeWidth=1;" vertex="1" parent="1">
          <mxGeometry x="-650" y="400" width="110" height="50" as="geometry" />
        </mxCell>
        <mxCell id="mk1XKIT5PEIia6fV1DQZ-44" value="CardAccount" style="html=1;whiteSpace=wrap;rounded=0;strokeWidth=1;" vertex="1" parent="1">
          <mxGeometry x="-440" y="520" width="110" height="50" as="geometry" />
        </mxCell>
        <mxCell id="mk1XKIT5PEIia6fV1DQZ-45" value="Customer" style="html=1;whiteSpace=wrap;rounded=0;strokeWidth=1;" vertex="1" parent="1">
          <mxGeometry x="-100" y="150" width="110" height="50" as="geometry" />
        </mxCell>
        <mxCell id="mk1XKIT5PEIia6fV1DQZ-46" value="ATMInfo" style="html=1;whiteSpace=wrap;rounded=0;strokeWidth=1;" vertex="1" parent="1">
          <mxGeometry x="570" y="-100" width="110" height="50" as="geometry" />
        </mxCell>
        <mxCell id="mk1XKIT5PEIia6fV1DQZ-51" value="Identity" style="html=1;verticalAlign=bottom;endArrow=block;curved=0;rounded=0;strokeWidth=1;" edge="1" parent="1" source="mk1XKIT5PEIia6fV1DQZ-46" target="mk1XKIT5PEIia6fV1DQZ-40">
          <mxGeometry width="80" relative="1" as="geometry">
            <mxPoint x="479" y="227" as="sourcePoint" />
            <mxPoint x="559" y="227" as="targetPoint" />
          </mxGeometry>
        </mxCell>
        <mxCell id="mk1XKIT5PEIia6fV1DQZ-59" value="*" style="text;align=center;fontStyle=1;verticalAlign=middle;spacingLeft=3;spacingRight=3;strokeColor=none;rotatable=0;points=[[0,0.5],[1,0.5]];portConstraint=eastwest;html=1;rounded=0;strokeWidth=1;" vertex="1" parent="1">
          <mxGeometry x="590" y="370" width="80" height="30" as="geometry" />
        </mxCell>
        <mxCell id="mk1XKIT5PEIia6fV1DQZ-60" value="1" style="text;align=center;fontStyle=1;verticalAlign=middle;spacingLeft=3;spacingRight=3;strokeColor=none;rotatable=0;points=[[0,0.5],[1,0.5]];portConstraint=eastwest;html=1;rounded=0;strokeWidth=1;" vertex="1" parent="1">
          <mxGeometry x="590" y="-40" width="80" height="30" as="geometry" />
        </mxCell>
        <mxCell id="mk1XKIT5PEIia6fV1DQZ-61" value="Modifiles" style="html=1;verticalAlign=bottom;endArrow=block;curved=0;rounded=0;exitX=0;exitY=0.5;exitDx=0;exitDy=0;entryX=1;entryY=0.5;entryDx=0;entryDy=0;strokeWidth=1;" edge="1" parent="1" source="mk1XKIT5PEIia6fV1DQZ-40" target="mk1XKIT5PEIia6fV1DQZ-5">
          <mxGeometry width="80" relative="1" as="geometry">
            <mxPoint x="-97" y="346" as="sourcePoint" />
            <mxPoint x="-17" y="346" as="targetPoint" />
          </mxGeometry>
        </mxCell>
        <mxCell id="mk1XKIT5PEIia6fV1DQZ-62" value="*" style="text;align=center;fontStyle=1;verticalAlign=middle;spacingLeft=3;spacingRight=3;strokeColor=none;rotatable=0;points=[[0,0.5],[1,0.5]];portConstraint=eastwest;html=1;rounded=0;strokeWidth=1;" vertex="1" parent="1">
          <mxGeometry x="510" y="400" width="80" height="30" as="geometry" />
        </mxCell>
        <mxCell id="mk1XKIT5PEIia6fV1DQZ-63" value="0,2" style="text;align=center;fontStyle=1;verticalAlign=middle;spacingLeft=3;spacingRight=3;strokeColor=none;rotatable=0;points=[[0,0.5],[1,0.5]];portConstraint=eastwest;html=1;rounded=0;strokeWidth=1;" vertex="1" parent="1">
          <mxGeometry x="20" y="400" width="80" height="30" as="geometry" />
        </mxCell>
        <mxCell id="mk1XKIT5PEIia6fV1DQZ-64" value="Provides Access to" style="html=1;verticalAlign=bottom;endArrow=block;curved=0;rounded=0;exitX=1;exitY=0.5;exitDx=0;exitDy=0;entryX=0;entryY=0.5;entryDx=0;entryDy=0;strokeWidth=1;" edge="1" parent="1" source="mk1XKIT5PEIia6fV1DQZ-42" target="mk1XKIT5PEIia6fV1DQZ-5">
          <mxGeometry width="80" relative="1" as="geometry">
            <mxPoint x="-440" y="415" as="sourcePoint" />
            <mxPoint x="-360" y="415" as="targetPoint" />
          </mxGeometry>
        </mxCell>
        <mxCell id="mk1XKIT5PEIia6fV1DQZ-67" value="*" style="text;align=center;fontStyle=1;verticalAlign=middle;spacingLeft=3;spacingRight=3;strokeColor=none;rotatable=0;points=[[0,0.5],[1,0.5]];portConstraint=eastwest;html=1;rounded=0;strokeWidth=1;" vertex="1" parent="1">
          <mxGeometry x="-560" y="400" width="80" height="30" as="geometry" />
        </mxCell>
        <mxCell id="mk1XKIT5PEIia6fV1DQZ-68" value="1...*" style="text;align=center;fontStyle=1;verticalAlign=middle;spacingLeft=3;spacingRight=3;strokeColor=none;rotatable=0;points=[[0,0.5],[1,0.5]];portConstraint=eastwest;html=1;rounded=0;strokeWidth=1;" vertex="1" parent="1">
          <mxGeometry x="-150" y="390" width="80" height="30" as="geometry" />
        </mxCell>
        <mxCell id="mk1XKIT5PEIia6fV1DQZ-73" value="" style="endArrow=none;dashed=1;html=1;dashPattern=1 3;strokeWidth=1;rounded=0;exitX=0.443;exitY=0.007;exitDx=0;exitDy=0;exitPerimeter=0;" edge="1" parent="1" source="mk1XKIT5PEIia6fV1DQZ-44">
          <mxGeometry width="50" height="50" relative="1" as="geometry">
            <mxPoint x="-275" y="460" as="sourcePoint" />
            <mxPoint x="-393" y="425" as="targetPoint" />
          </mxGeometry>
        </mxCell>
        <mxCell id="mk1XKIT5PEIia6fV1DQZ-74" value="Administers" style="html=1;verticalAlign=bottom;endArrow=block;curved=0;rounded=0;exitX=0.5;exitY=1;exitDx=0;exitDy=0;entryX=0.5;entryY=0;entryDx=0;entryDy=0;strokeWidth=1;" edge="1" parent="1" source="mk1XKIT5PEIia6fV1DQZ-41" target="mk1XKIT5PEIia6fV1DQZ-42">
          <mxGeometry width="80" relative="1" as="geometry">
            <mxPoint x="-262" y="232" as="sourcePoint" />
            <mxPoint x="-182" y="232" as="targetPoint" />
          </mxGeometry>
        </mxCell>
        <mxCell id="mk1XKIT5PEIia6fV1DQZ-75" value="1" style="text;align=center;fontStyle=1;verticalAlign=middle;spacingLeft=3;spacingRight=3;strokeColor=none;rotatable=0;points=[[0,0.5],[1,0.5]];portConstraint=eastwest;html=1;rounded=0;strokeWidth=1;" vertex="1" parent="1">
          <mxGeometry x="-590" y="-40" width="80" height="30" as="geometry" />
        </mxCell>
        <mxCell id="mk1XKIT5PEIia6fV1DQZ-78" value="1...*" style="text;align=center;fontStyle=1;verticalAlign=middle;spacingLeft=3;spacingRight=3;strokeColor=none;rotatable=0;points=[[0,0.5],[1,0.5]];portConstraint=eastwest;html=1;rounded=0;strokeWidth=1;" vertex="1" parent="1">
          <mxGeometry x="-650" y="370" width="80" height="30" as="geometry" />
        </mxCell>
        <mxCell id="mk1XKIT5PEIia6fV1DQZ-80" style="edgeStyle=orthogonalEdgeStyle;rounded=0;orthogonalLoop=1;jettySize=auto;html=1;exitX=0;exitY=0.5;exitDx=0;exitDy=0;entryX=0.75;entryY=0;entryDx=0;entryDy=0;strokeWidth=1;" edge="1" parent="1" source="mk1XKIT5PEIia6fV1DQZ-45" target="mk1XKIT5PEIia6fV1DQZ-42">
          <mxGeometry relative="1" as="geometry">
            <mxPoint x="-574" y="388" as="targetPoint" />
          </mxGeometry>
        </mxCell>
        <mxCell id="mk1XKIT5PEIia6fV1DQZ-81" value="Owns" style="text;align=center;fontStyle=1;verticalAlign=middle;spacingLeft=3;spacingRight=3;strokeColor=none;rotatable=0;points=[[0,0.5],[1,0.5]];portConstraint=eastwest;html=1;rounded=0;strokeWidth=1;" vertex="1" parent="1">
          <mxGeometry x="-300" y="140" width="80" height="30" as="geometry" />
        </mxCell>
        <mxCell id="mk1XKIT5PEIia6fV1DQZ-82" value="" style="line;strokeWidth=1;fillColor=none;align=left;verticalAlign=middle;spacingTop=-1;spacingLeft=3;spacingRight=3;rotatable=0;labelPosition=right;points=[];portConstraint=eastwest;strokeColor=inherit;rounded=0;" vertex="1" parent="1">
          <mxGeometry x="-540" y="-80" width="470" height="20" as="geometry" />
        </mxCell>
        <mxCell id="mk1XKIT5PEIia6fV1DQZ-83" style="edgeStyle=orthogonalEdgeStyle;rounded=0;orthogonalLoop=1;jettySize=auto;html=1;entryX=0.61;entryY=-0.002;entryDx=0;entryDy=0;entryPerimeter=0;strokeWidth=1;" edge="1" parent="1" source="mk1XKIT5PEIia6fV1DQZ-82" target="mk1XKIT5PEIia6fV1DQZ-45">
          <mxGeometry relative="1" as="geometry" />
        </mxCell>
        <mxCell id="mk1XKIT5PEIia6fV1DQZ-84" value="Provide Service for" style="text;align=center;fontStyle=1;verticalAlign=middle;spacingLeft=3;spacingRight=3;strokeColor=none;rotatable=0;points=[[0,0.5],[1,0.5]];portConstraint=eastwest;html=1;rounded=0;strokeWidth=1;" vertex="1" parent="1">
          <mxGeometry x="-310" y="-60" width="80" height="30" as="geometry" />
        </mxCell>
        <mxCell id="mk1XKIT5PEIia6fV1DQZ-85" value="1" style="text;align=center;fontStyle=1;verticalAlign=middle;spacingLeft=3;spacingRight=3;strokeColor=none;rotatable=0;points=[[0,0.5],[1,0.5]];portConstraint=eastwest;html=1;rounded=0;strokeWidth=1;" vertex="1" parent="1">
          <mxGeometry x="-540" y="-120" width="80" height="30" as="geometry" />
        </mxCell>
        <mxCell id="mk1XKIT5PEIia6fV1DQZ-86" value="1...*" style="text;align=center;fontStyle=1;verticalAlign=middle;spacingLeft=3;spacingRight=3;strokeColor=none;rotatable=0;points=[[0,0.5],[1,0.5]];portConstraint=eastwest;html=1;rounded=0;strokeWidth=1;" vertex="1" parent="1">
          <mxGeometry x="-90" y="120" width="80" height="30" as="geometry" />
        </mxCell>
        <mxCell id="mk1XKIT5PEIia6fV1DQZ-88" value="" style="html=1;verticalAlign=bottom;endArrow=block;curved=0;rounded=0;exitX=0.427;exitY=1.02;exitDx=0;exitDy=0;exitPerimeter=0;entryX=0.413;entryY=0.953;entryDx=0;entryDy=0;entryPerimeter=0;strokeWidth=1;" edge="1" parent="1" source="mk1XKIT5PEIia6fV1DQZ-45" target="mk1XKIT5PEIia6fV1DQZ-5">
          <mxGeometry width="80" relative="1" as="geometry">
            <mxPoint x="-14" y="410.99999999999955" as="sourcePoint" />
            <mxPoint x="66" y="410.99999999999955" as="targetPoint" />
          </mxGeometry>
        </mxCell>
        <mxCell id="mk1XKIT5PEIia6fV1DQZ-91" value="Owns" style="text;align=center;fontStyle=1;verticalAlign=middle;spacingLeft=3;spacingRight=3;strokeColor=none;rotatable=0;points=[[0,0.5],[1,0.5]];portConstraint=eastwest;html=1;rounded=0;strokeWidth=1;" vertex="1" parent="1">
          <mxGeometry x="-50" y="280" width="80" height="30" as="geometry" />
        </mxCell>
        <mxCell id="mk1XKIT5PEIia6fV1DQZ-92" value="1" style="text;align=center;fontStyle=1;verticalAlign=middle;spacingLeft=3;spacingRight=3;strokeColor=none;rotatable=0;points=[[0,0.5],[1,0.5]];portConstraint=eastwest;html=1;rounded=0;strokeWidth=1;" vertex="1" parent="1">
          <mxGeometry x="-110" y="210" width="80" height="30" as="geometry" />
        </mxCell>
        <mxCell id="mk1XKIT5PEIia6fV1DQZ-93" value="1...*" style="text;align=center;fontStyle=1;verticalAlign=middle;spacingLeft=3;spacingRight=3;strokeColor=none;rotatable=0;points=[[0,0.5],[1,0.5]];portConstraint=eastwest;html=1;rounded=0;strokeWidth=1;" vertex="1" parent="1">
          <mxGeometry x="-120" y="340" width="80" height="30" as="geometry" />
        </mxCell>
        <mxCell id="mk1XKIT5PEIia6fV1DQZ-94" value="" style="html=1;verticalAlign=bottom;endArrow=block;curved=0;rounded=0;exitX=0.019;exitY=0.323;exitDx=0;exitDy=0;exitPerimeter=0;entryX=0;entryY=0.25;entryDx=0;entryDy=0;strokeWidth=1;" edge="1" parent="1">
          <mxGeometry width="80" relative="1" as="geometry">
            <mxPoint x="-539.48" y="-88.80199999999986" as="sourcePoint" />
            <mxPoint x="566" y="-87.7" as="targetPoint" />
            <Array as="points">
              <mxPoint x="20" y="-90" />
            </Array>
          </mxGeometry>
        </mxCell>
        <mxCell id="mk1XKIT5PEIia6fV1DQZ-96" value="Provide Service for" style="text;align=center;fontStyle=1;verticalAlign=middle;spacingLeft=3;spacingRight=3;strokeColor=none;rotatable=0;points=[[0,0.5],[1,0.5]];portConstraint=eastwest;html=1;rounded=0;strokeWidth=1;" vertex="1" parent="1">
          <mxGeometry x="-20" y="-140" width="80" height="30" as="geometry" />
        </mxCell>
        <mxCell id="mk1XKIT5PEIia6fV1DQZ-97" value="1" style="text;align=center;fontStyle=1;verticalAlign=middle;spacingLeft=3;spacingRight=3;strokeColor=none;rotatable=0;points=[[0,0.5],[1,0.5]];portConstraint=eastwest;html=1;rounded=0;strokeWidth=1;" vertex="1" parent="1">
          <mxGeometry x="-520" y="-60" width="80" height="30" as="geometry" />
        </mxCell>
        <mxCell id="mk1XKIT5PEIia6fV1DQZ-98" value="1...*" style="text;align=center;fontStyle=1;verticalAlign=middle;spacingLeft=3;spacingRight=3;strokeColor=none;rotatable=0;points=[[0,0.5],[1,0.5]];portConstraint=eastwest;html=1;rounded=0;strokeWidth=1;" vertex="1" parent="1">
          <mxGeometry x="500" y="-80" width="80" height="30" as="geometry" />
        </mxCell>
      </root>
    </mxGraphModel>
  </diagram>
</mxfile>
